<svg width="24" height="24" viewBox="0 0 24 24" fill="none" xmlns="http://www.w3.org/2000/svg">
<path fill-rule="evenodd" clip-rule="evenodd" d="M12.0725 3.3619C13.5187 2.29793 15.1905 1.50472 17.0596 1.49995C18.8392 1.4954 20.624 2.17291 21.983 3.53187C22.5962 4.14511 23.118 4.82203 23.476 5.67517C23.8329 6.52584 23.9986 7.48376 23.997 8.62574C23.9966 11.9166 21.7398 15.0072 19.3755 17.4186C17.131 19.7079 14.5564 21.6133 13.0022 22.7635C12.8858 22.8496 12.7751 22.9316 12.6707 23.0091C12.2725 23.3048 11.7275 23.3048 11.3293 23.0091C11.2249 22.9316 11.1142 22.8497 10.9978 22.7635C9.44366 21.6133 6.86905 19.7079 4.62449 17.4186C2.2643 15.0114 0.0112355 11.9273 0.00302434 8.64293C-0.0512525 6.80165 0.625036 4.93878 2.03194 3.53187C4.68509 0.878721 9.33513 0.806001 12.0725 3.3619ZM10.3426 4.83577C9.12664 6.00701 8.02295 7.33938 7.09287 8.46218C6.8171 8.79508 6.55659 9.10956 6.31295 9.39596C5.93308 9.84249 5.95979 10.5059 6.37433 10.9204C6.89819 11.4443 7.41967 11.9661 7.93806 12.4902C9.23707 13.8034 11.3755 13.8612 12.7158 12.5385C13.1118 12.1477 13.5163 11.7458 13.9187 11.3431C14.9597 10.3016 16.6187 10.2909 17.6294 11.2981C18.2216 11.8882 18.8109 12.479 19.3795 13.0489C19.5226 13.1923 19.6643 13.3344 19.8045 13.4749C19.4387 13.9751 19.0312 14.4732 18.5909 14.9663L16.5131 13.0483C16.0565 12.6268 15.3448 12.6553 14.9233 13.1119C14.5019 13.5684 14.5304 14.2802 14.9869 14.7016L17.0215 16.5796C16.5345 17.0436 16.0382 17.4883 15.546 17.9104L13.3256 15.8608C12.869 15.4393 12.1573 15.4678 11.7358 15.9244C11.3144 16.3809 11.3429 17.0927 11.7994 17.5141L13.7869 19.3486C13.1377 19.8571 12.5295 20.3126 12 20.7056C10.4389 19.5468 8.19386 17.8453 6.23109 15.8434C3.91707 13.4833 2.253 10.9588 2.253 8.62493C2.253 8.6129 2.25281 8.60088 2.25242 8.58886C2.21228 7.3372 2.66913 6.07666 3.62293 5.12286C5.36093 3.38486 8.46716 3.28671 10.3426 4.83577ZM21.0111 11.4986C21.48 10.5254 21.747 9.55984 21.747 8.62493V8.62329C21.7483 7.70313 21.6154 7.05617 21.4012 6.5457C21.188 6.03751 20.866 5.59689 20.392 5.12286C19.4734 4.2043 18.2708 3.74686 17.0654 3.74994C15.4279 3.75413 13.8186 4.69071 12.2259 6.15293C10.9924 7.28535 9.89577 8.60804 8.88406 9.82835C8.82017 9.90541 8.75662 9.98207 8.69339 10.0582C8.97505 10.3407 9.25667 10.6238 9.53765 10.9078C9.98891 11.364 10.7043 11.3625 11.1354 10.937C11.5276 10.5499 11.9284 10.1516 12.3273 9.75249C14.2134 7.86553 17.2955 7.78891 19.2176 9.70437C19.8113 10.296 20.4059 10.892 20.9767 11.4642C20.9882 11.4757 20.9996 11.4872 21.0111 11.4986Z" fill="#139D90"/>
</svg>
