<svg width="24" height="24" viewBox="0 0 24 24" fill="none" xmlns="http://www.w3.org/2000/svg">
<g clip-path="url(#clip0_57_261)">
<path fill-rule="evenodd" clip-rule="evenodd" d="M12.7468 21.7501C16.9957 21.7501 20.2456 18.779 20.2456 15.0001C20.2456 12.7642 19.1921 11.6816 17.3354 9.83179C15.8081 8.31015 13.9138 6.39952 13.1235 3.21842C12.6913 3.56251 12.269 3.99049 11.9296 4.49216C11.1991 5.57207 10.8609 6.94943 11.7582 8.74402C12.4685 10.1646 12.7626 12.1694 11.341 13.5911C10.4942 14.4379 9.04563 15.0338 7.47357 14.3751C6.76744 14.0793 6.18307 13.5859 5.69659 12.968C5.42478 13.5374 5.25002 14.2325 5.25 15.0001C5.24991 18.7947 8.4954 21.7501 12.7468 21.7501ZM15.0215 0.749755C14.9973 0.33625 14.661 0.00330108 14.2604 0.108837C11.697 0.784246 7.14375 4.54642 9.74573 9.75027C10.2621 10.7831 10.1725 11.5776 9.75 12.0001C9.05788 12.6922 7.72705 12.7456 6.63914 10.0858C6.47924 9.69487 6.03939 9.47521 5.67655 9.69142C4.02416 10.6761 3.00005 12.8033 3 15.0001C2.99988 20.2681 7.49683 24.0001 12.7468 24.0001C17.9968 24.0001 22.4956 20.2501 22.4956 15.0001C22.4956 11.7942 20.8049 10.111 19.0294 8.34334C17.1833 6.50545 15.2456 4.57634 15.0215 0.749755Z" fill="#139D90"/>
</g>
<defs>
<clipPath id="clip0_57_261">
<rect width="24" height="24" fill="white"/>
</clipPath>
</defs>
</svg>
