<svg width="24" height="24" viewBox="0 0 24 24" fill="none" xmlns="http://www.w3.org/2000/svg">
<path fill-rule="evenodd" clip-rule="evenodd" d="M4.125 1.5C3.50368 1.5 3 2.00368 3 2.625C3 3.24632 3.50368 3.75 4.125 3.75H5.25V5.625C5.25 7.86765 6.30588 9.97941 8.1 11.325L8.59999 11.7C8.8 11.85 8.8 12.15 8.59999 12.3L8.1 12.675C6.30588 14.0206 5.25 16.1323 5.25 18.375V20.25H4.125C3.50368 20.25 3 20.7537 3 21.375C3 21.9963 3.50368 22.5 4.125 22.5H19.875C20.4963 22.5 21 21.9963 21 21.375C21 20.7537 20.4963 20.25 19.875 20.25H18.75V18.375C18.75 16.1323 17.6942 14.0206 15.9 12.675L15.4 12.3C15.1999 12.15 15.1999 11.85 15.4 11.7L15.9 11.325C17.6942 9.97941 18.75 7.86765 18.75 5.625V3.75H19.875C20.4963 3.75 21 3.24632 21 2.625C21 2.00368 20.4963 1.5 19.875 1.5H4.125ZM16.5 3.75H7.5V5.625C7.5 7.15944 8.22245 8.60433 9.45 9.525L9.95 9.9C11.35 10.95 11.35 13.05 9.95 14.1L9.45 14.475C8.22245 15.3957 7.5 16.8405 7.5 18.375V20.25H16.5V18.375C16.5 16.8405 15.7776 15.3957 14.55 14.475L14.05 14.1C12.65 13.05 12.65 10.95 14.05 9.9L14.55 9.525C15.7776 8.60433 16.5 7.15944 16.5 5.625V3.75Z" fill="#139D90"/>
</svg>
